<svg xmlns="http://www.w3.org/2000/svg" width="35" height="30" viewBox="0 0 35 30">
    <g fill="none" fill-rule="evenodd">
        <g fill="#FFF" fill-rule="nonzero">
            <g>
                <g>
                    <path d="M11.067 20h18.067c.447 0 .84-.296.96-.725l4-14c.087-.302.028-.627-.161-.877-.19-.25-.485-.398-.8-.398H8.759L8.043.783C7.942.325 7.535 0 7.067 0H1C.447 0 0 .447 0 1c0 .553.447 1 1 1h5.264l3.611 16.25c-1.062.462-1.808 1.52-1.808 2.75 0 1.654 1.345 3 3 3h18.067c.552 0 1-.447 1-1 0-.552-.448-1-1-1H11.067c-.551 0-1-.448-1-1s.449-1 1-1zM10.067 27c0 1.655 1.345 3 3 3 1.654 0 3-1.345 3-3 0-1.654-1.346-3-3-3-1.655 0-3 1.346-3 3zM24.134 27c0 1.655 1.345 3 3 3 1.654 0 3-1.345 3-3 0-1.654-1.346-3-3-3-1.655 0-3 1.346-3 3z" transform="translate(-1081 -1852) translate(1081 1852)"/>
                </g>
            </g>
        </g>
    </g>
</svg>
