<svg xmlns="http://www.w3.org/2000/svg" width="127" height="127" viewBox="0 0 127 127">
    <g fill="none" fill-rule="evenodd">
        <g fill-rule="nonzero">
            <path fill="#DF101B" d="M125.5 60.458l-5.696-4.37 4.37-5.697c1.535-2 .755-4.911-1.574-5.876l-6.633-2.748 2.747-6.633c.965-2.329-.542-4.94-3.041-5.268l-7.119-.937.937-7.119c.33-2.499-1.802-4.63-4.301-4.302l-3.042.4v91.183l3.042.4c2.5.33 4.63-1.802 4.301-4.301l-.937-7.119 7.119-.937c2.5-.329 4.006-2.939 3.041-5.268l-2.747-6.633 6.633-2.748c2.33-.964 3.11-3.876 1.575-5.876l-4.371-5.696 5.696-4.371c2-1.535 2-4.55 0-6.084z"/>
            <path fill="#F51521" d="M97.134 115.673l.937-7.119 4.077.537c1.2-.712 1.985-2.222 1.791-3.901l-.824-7.119 6.259-.937c2.197-.329 3.523-2.939 2.674-5.268l-2.416-6.633 5.833-2.748c2.048-.964 2.734-3.876 1.384-5.876l-3.843-5.696 5.009-4.371c1.758-1.535 1.758-4.55 0-6.084l-5.009-4.37 3.843-5.697c1.35-2 .664-4.911-1.384-5.876l-5.833-2.748 2.416-6.633c.849-2.329-.477-4.94-2.674-5.268l-6.26-.937.825-7.119c.194-1.68-.59-3.189-1.791-3.901l-4.077.537-.08-.613-.857-6.505c-.33-2.5-2.94-4.007-5.269-3.042l-6.633 2.747L82.485 4.4c-.965-2.33-3.877-3.11-5.877-1.575l-5.696 4.371-4.37-5.696c-1.535-2-4.55-2-6.084 0l-4.37 5.696-5.697-4.37c-2-1.535-4.911-.755-5.876 1.574l-2.748 6.633-6.633-2.747c-2.329-.965-4.94.542-5.268 3.042l-.937 7.118-7.118-.937c-2.5-.33-4.631 1.802-4.302 4.302l.937 7.118-7.118.937c-2.5.329-4.007 2.94-3.042 5.268l2.747 6.633L4.4 44.515c-2.33.965-3.11 3.876-1.575 5.876l4.371 5.697-5.696 4.37c-2 1.535-2 4.55 0 6.084l5.696 4.37-4.37 5.697c-1.535 2-.755 4.911 1.574 5.876l6.633 2.748-2.747 6.633c-.965 2.329.542 4.94 3.042 5.268l7.118.937-.937 7.119c-.33 2.5 1.802 4.63 4.302 4.301l7.118-.937.937 7.119c.329 2.499 2.94 4.006 5.268 3.041l6.633-2.747 2.748 6.633c.965 2.33 3.876 3.11 5.876 1.575l5.697-4.371 4.37 5.696c1.535 2 4.55 2 6.084 0l4.37-5.696 5.697 4.37c2 1.535 4.911.755 5.876-1.574l2.748-6.633 6.633 2.747c2.329.965 4.94-.542 5.268-3.041z"/>
        </g>
        <g fill="#FFF" font-family="Helvetica-Bold, Helvetica" font-weight="bold">
            <text font-size="32" transform="translate(25 39)">
                <tspan x="6.5" y="31">50%</tspan>
            </text>
            <text font-size="18" transform="translate(25 39)">
                <tspan x=".5" y="42">Discount</tspan>
            </text>
        </g>
        <g fill="#FFF" fill-rule="nonzero">
            <path d="M23.169 4.232c-.08-.237-.295-.404-.549-.427L19.156 3.5 17.787.377C17.686.148 17.456 0 17.2 0c-.256 0-.486.148-.586.377L15.244 3.5l-3.464.306c-.254.023-.47.19-.549.427-.079.236-.006.496.186.66l2.619 2.236-.772 3.312c-.057.244.04.496.248.642.111.079.242.118.374.118.113 0 .226-.03.327-.088l2.987-1.74 2.987 1.74c.219.127.494.116.701-.03.208-.146.305-.398.248-.642l-.772-3.312 2.619-2.236c.192-.164.265-.423.186-.66zM34.381 4.818c-.047-.135-.177-.23-.329-.244L31.974 4.4l-.822-1.783c-.06-.131-.198-.216-.352-.216-.154 0-.292.085-.352.216l-.821 1.783-2.08.175c-.151.013-.28.11-.328.244-.048.135-.004.284.111.378l1.572 1.277-.464 1.893c-.034.139.025.283.15.366.066.045.145.068.224.068.067 0 .135-.017.196-.05l1.792-.994 1.792.994c.131.073.297.066.42-.018.125-.083.184-.227.15-.366l-.464-1.893 1.572-1.277c.115-.094.159-.242.111-.378zM7.181 4.818c-.047-.135-.177-.23-.329-.244L4.774 4.4l-.822-1.783c-.06-.131-.198-.216-.352-.216-.154 0-.292.085-.352.216l-.821 1.783-2.08.175c-.151.013-.28.11-.328.244-.048.135-.004.284.111.378l1.572 1.277-.464 1.893c-.034.139.025.283.15.366.066.045.145.068.224.068.067 0 .135-.017.196-.05L3.6 7.756l1.792.994c.131.073.297.066.42-.018.125-.083.184-.227.15-.366l-.464-1.893L7.07 5.196c.115-.094.159-.242.111-.378z" transform="translate(46 20)"/>
        </g>
        <g fill="#FFF" fill-rule="nonzero">
            <path d="M23.169 4.232c-.08-.237-.295-.404-.549-.427L19.156 3.5 17.787.377C17.686.148 17.456 0 17.2 0c-.256 0-.486.148-.586.377L15.244 3.5l-3.464.306c-.254.023-.47.19-.549.427-.079.236-.006.496.186.66l2.619 2.236-.772 3.312c-.057.244.04.496.248.642.111.079.242.118.374.118.113 0 .226-.03.327-.088l2.987-1.74 2.987 1.74c.219.127.494.116.701-.03.208-.146.305-.398.248-.642l-.772-3.312 2.619-2.236c.192-.164.265-.423.186-.66zM34.381 4.818c-.047-.135-.177-.23-.329-.244L31.974 4.4l-.822-1.783c-.06-.131-.198-.216-.352-.216-.154 0-.292.085-.352.216l-.821 1.783-2.08.175c-.151.013-.28.11-.328.244-.048.135-.004.284.111.378l1.572 1.277-.464 1.893c-.034.139.025.283.15.366.066.045.145.068.224.068.067 0 .135-.017.196-.05l1.792-.994 1.792.994c.131.073.297.066.42-.018.125-.083.184-.227.15-.366l-.464-1.893 1.572-1.277c.115-.094.159-.242.111-.378zM7.181 4.818c-.047-.135-.177-.23-.329-.244L4.774 4.4l-.822-1.783c-.06-.131-.198-.216-.352-.216-.154 0-.292.085-.352.216l-.821 1.783-2.08.175c-.151.013-.28.11-.328.244-.048.135-.004.284.111.378l1.572 1.277-.464 1.893c-.034.139.025.283.15.366.066.045.145.068.224.068.067 0 .135-.017.196-.05L3.6 7.756l1.792.994c.131.073.297.066.42-.018.125-.083.184-.227.15-.366l-.464-1.893L7.07 5.196c.115-.094.159-.242.111-.378z" transform="translate(46 95)"/>
        </g>
    </g>
</svg>
